<svg width="85" height="85" viewBox="0 0 85 85" fill="none" xmlns="http://www.w3.org/2000/svg">
<g filter="url(#filter0_d)">
<circle cx="42.5" cy="34.5" r="18.5" fill="#444444"/>
</g>
<g clip-path="url(#clip0)">
<path d="M41 26.278C41.0976 26.3966 41.1574 26.5418 41.1717 26.6947C41.1859 26.8477 41.154 27.0014 41.08 27.136C40.5019 28.1975 40.1999 29.3873 40.202 30.596C40.202 34.617 43.48 37.873 47.52 37.873C48.047 37.873 48.56 37.818 49.053 37.713C49.2041 37.6803 49.3615 37.6928 49.5056 37.749C49.6497 37.8052 49.774 37.9026 49.863 38.029C49.957 38.1604 50.0049 38.3193 49.9993 38.4808C49.9937 38.6423 49.9349 38.7974 49.832 38.922C49.0477 39.8854 48.0582 40.6617 46.9358 41.1942C45.8134 41.7267 44.5863 42.002 43.344 42C38.734 42 35 38.286 35 33.71C35 30.266 37.114 27.312 40.124 26.06C40.2739 25.9966 40.4404 25.9836 40.5983 26.0229C40.7563 26.0622 40.8973 26.1517 41 26.278Z" fill="#DBFF00"/>
<path d="M45.7941 29.148C45.8084 29.1047 45.836 29.067 45.873 29.0403C45.91 29.0136 45.9544 28.9992 46.0001 28.9992C46.0457 28.9992 46.0901 29.0136 46.1271 29.0403C46.1641 29.067 46.1917 29.1047 46.2061 29.148L46.5931 30.31C46.7661 30.828 47.1721 31.234 47.6901 31.407L48.8521 31.794C48.8954 31.8083 48.933 31.836 48.9598 31.8729C48.9865 31.9099 49.0008 31.9544 49.0008 32C49.0008 32.0456 48.9865 32.0901 48.9598 32.1271C48.933 32.164 48.8954 32.1917 48.8521 32.206L47.6901 32.593C47.4346 32.6781 47.2024 32.8216 47.012 33.012C46.8216 33.2024 46.6782 33.4345 46.5931 33.69L46.2061 34.852C46.1917 34.8953 46.1641 34.933 46.1271 34.9597C46.0901 34.9864 46.0457 35.0008 46.0001 35.0008C45.9544 35.0008 45.91 34.9864 45.873 34.9597C45.836 34.933 45.8084 34.8953 45.7941 34.852L45.4071 33.69C45.3219 33.4345 45.1785 33.2024 44.9881 33.012C44.7977 32.8216 44.5655 32.6781 44.3101 32.593L43.1481 32.206C43.1047 32.1917 43.0671 32.164 43.0404 32.1271C43.0136 32.0901 42.9993 32.0456 42.9993 32C42.9993 31.9544 43.0136 31.9099 43.0404 31.8729C43.0671 31.836 43.1047 31.8083 43.1481 31.794L44.3101 31.407C44.5655 31.3219 44.7977 31.1784 44.9881 30.988C45.1785 30.7976 45.3219 30.5655 45.4071 30.31L45.7941 29.148ZM48.8631 26.099C48.8729 26.0705 48.8914 26.0458 48.916 26.0284C48.9405 26.0109 48.9699 26.0015 49.0001 26.0015C49.0302 26.0015 49.0596 26.0109 49.0841 26.0284C49.1087 26.0458 49.1272 26.0705 49.1371 26.099L49.3951 26.873C49.5101 27.219 49.7811 27.49 50.1271 27.605L50.9011 27.863C50.9295 27.8729 50.9542 27.8914 50.9717 27.9159C50.9892 27.9405 50.9986 27.9699 50.9986 28C50.9986 28.0301 50.9892 28.0595 50.9717 28.0841C50.9542 28.1086 50.9295 28.1271 50.9011 28.137L50.1271 28.395C49.9565 28.4517 49.8016 28.5474 49.6745 28.6745C49.5475 28.8015 49.4518 28.9565 49.3951 29.127L49.1371 29.901C49.1272 29.9295 49.1087 29.9542 49.0841 29.9716C49.0596 29.9891 49.0302 29.9985 49.0001 29.9985C48.9699 29.9985 48.9405 29.9891 48.916 29.9716C48.8914 29.9542 48.8729 29.9295 48.8631 29.901L48.6051 29.127C48.5483 28.9565 48.4526 28.8015 48.3256 28.6745C48.1985 28.5474 48.0436 28.4517 47.8731 28.395L47.0991 28.137C47.0706 28.1271 47.0459 28.1086 47.0284 28.0841C47.0109 28.0595 47.0016 28.0301 47.0016 28C47.0016 27.9699 47.0109 27.9405 47.0284 27.9159C47.0459 27.8914 47.0706 27.8729 47.0991 27.863L47.8731 27.605C48.2191 27.49 48.4901 27.219 48.6051 26.873L48.8631 26.1V26.099Z" fill="#DBFF00"/>
</g>
<defs>
<filter id="filter0_d" x="0" y="0" width="85" height="85" filterUnits="userSpaceOnUse" color-interpolation-filters="sRGB">
<feFlood flood-opacity="0" result="BackgroundImageFix"/>
<feColorMatrix in="SourceAlpha" type="matrix" values="0 0 0 0 0 0 0 0 0 0 0 0 0 0 0 0 0 0 127 0" result="hardAlpha"/>
<feMorphology radius="2" operator="erode" in="SourceAlpha" result="effect1_dropShadow"/>
<feOffset dy="8"/>
<feGaussianBlur stdDeviation="13"/>
<feComposite in2="hardAlpha" operator="out"/>
<feColorMatrix type="matrix" values="0 0 0 0 0 0 0 0 0 0 0 0 0 0 0 0 0 0 0.1 0"/>
<feBlend mode="normal" in2="BackgroundImageFix" result="effect1_dropShadow"/>
<feBlend mode="normal" in="SourceGraphic" in2="effect1_dropShadow" result="shape"/>
</filter>
<clipPath id="clip0">
<rect width="16" height="16" fill="white" transform="translate(35 26)"/>
</clipPath>
</defs>
</svg>
