<svg width="85" height="85" viewBox="0 0 85 85" fill="none" xmlns="http://www.w3.org/2000/svg">
<g filter="url(#filter0_d)">
<circle cx="42.5" cy="34.5" r="18.5" fill="#FBFBFB"/>
</g>
<path d="M42.5 39.25C43.7598 39.25 44.968 38.7496 45.8588 37.8588C46.7496 36.968 47.25 35.7598 47.25 34.5C47.25 33.2402 46.7496 32.032 45.8588 31.1412C44.968 30.2504 43.7598 29.75 42.5 29.75C41.2402 29.75 40.032 30.2504 39.1412 31.1412C38.2504 32.032 37.75 33.2402 37.75 34.5C37.75 35.7598 38.2504 36.968 39.1412 37.8588C40.032 38.7496 41.2402 39.25 42.5 39.25ZM42.5 25C42.6575 25 42.8085 25.0626 42.9198 25.1739C43.0312 25.2853 43.0938 25.4363 43.0938 25.5938V27.9688C43.0938 28.1262 43.0312 28.2772 42.9198 28.3886C42.8085 28.4999 42.6575 28.5625 42.5 28.5625C42.3425 28.5625 42.1915 28.4999 42.0802 28.3886C41.9688 28.2772 41.9062 28.1262 41.9062 27.9688V25.5938C41.9062 25.4363 41.9688 25.2853 42.0802 25.1739C42.1915 25.0626 42.3425 25 42.5 25V25ZM42.5 40.4375C42.6575 40.4375 42.8085 40.5001 42.9198 40.6114C43.0312 40.7228 43.0938 40.8738 43.0938 41.0312V43.4062C43.0938 43.5637 43.0312 43.7147 42.9198 43.8261C42.8085 43.9374 42.6575 44 42.5 44C42.3425 44 42.1915 43.9374 42.0802 43.8261C41.9688 43.7147 41.9062 43.5637 41.9062 43.4062V41.0312C41.9062 40.8738 41.9688 40.7228 42.0802 40.6114C42.1915 40.5001 42.3425 40.4375 42.5 40.4375ZM52 34.5C52 34.6575 51.9374 34.8085 51.8261 34.9198C51.7147 35.0312 51.5637 35.0938 51.4062 35.0938H49.0312C48.8738 35.0938 48.7228 35.0312 48.6114 34.9198C48.5001 34.8085 48.4375 34.6575 48.4375 34.5C48.4375 34.3425 48.5001 34.1915 48.6114 34.0802C48.7228 33.9688 48.8738 33.9062 49.0312 33.9062H51.4062C51.5637 33.9062 51.7147 33.9688 51.8261 34.0802C51.9374 34.1915 52 34.3425 52 34.5ZM36.5625 34.5C36.5625 34.6575 36.4999 34.8085 36.3886 34.9198C36.2772 35.0312 36.1262 35.0938 35.9688 35.0938H33.5938C33.4363 35.0938 33.2853 35.0312 33.1739 34.9198C33.0626 34.8085 33 34.6575 33 34.5C33 34.3425 33.0626 34.1915 33.1739 34.0802C33.2853 33.9688 33.4363 33.9062 33.5938 33.9062H35.9688C36.1262 33.9062 36.2772 33.9688 36.3886 34.0802C36.4999 34.1915 36.5625 34.3425 36.5625 34.5ZM49.2177 27.7823C49.329 27.8937 49.3915 28.0447 49.3915 28.2021C49.3915 28.3595 49.329 28.5105 49.2177 28.6219L47.5386 30.3022C47.4834 30.3573 47.4178 30.401 47.3457 30.4308C47.2736 30.4606 47.1964 30.4759 47.1184 30.4759C46.9608 30.4758 46.8097 30.4131 46.6984 30.3016C46.6433 30.2464 46.5996 30.1809 46.5698 30.1088C46.54 30.0367 46.5246 29.9594 46.5247 29.8814C46.5248 29.7238 46.5875 29.5728 46.699 29.4614L48.3781 27.7823C48.4895 27.671 48.6405 27.6085 48.7979 27.6085C48.9553 27.6085 49.1063 27.671 49.2177 27.7823ZM38.301 38.699C38.4123 38.8103 38.4748 38.9613 38.4748 39.1188C38.4748 39.2762 38.4123 39.4272 38.301 39.5386L36.6219 41.2177C36.5099 41.3258 36.3599 41.3857 36.2042 41.3843C36.0486 41.383 35.8996 41.3205 35.7895 41.2105C35.6795 41.1004 35.617 40.9514 35.6157 40.7958C35.6143 40.6401 35.6742 40.4901 35.7823 40.3781L37.4614 38.699C37.5728 38.5877 37.7238 38.5252 37.8812 38.5252C38.0387 38.5252 38.1897 38.5877 38.301 38.699ZM49.2177 41.2177C49.1063 41.329 48.9553 41.3915 48.7979 41.3915C48.6405 41.3915 48.4895 41.329 48.3781 41.2177L46.699 39.5386C46.5908 39.4266 46.531 39.2766 46.5324 39.1209C46.5337 38.9652 46.5961 38.8163 46.7062 38.7062C46.8163 38.5961 46.9652 38.5337 47.1209 38.5324C47.2766 38.531 47.4266 38.5908 47.5386 38.699L49.2177 40.3781C49.329 40.4895 49.3915 40.6405 49.3915 40.7979C49.3915 40.9553 49.329 41.1063 49.2177 41.2177ZM38.301 30.3022C38.1897 30.4135 38.0387 30.476 37.8812 30.476C37.7238 30.476 37.5728 30.4135 37.4614 30.3022L35.7823 28.6219C35.7256 28.5671 35.6804 28.5016 35.6493 28.4291C35.6181 28.3567 35.6018 28.2788 35.6011 28.2C35.6004 28.1211 35.6154 28.0429 35.6453 27.97C35.6751 27.897 35.7192 27.8307 35.775 27.775C35.8307 27.7192 35.897 27.6751 35.97 27.6453C36.0429 27.6154 36.1211 27.6004 36.2 27.6011C36.2788 27.6018 36.3567 27.6181 36.4291 27.6493C36.5016 27.6804 36.5671 27.7256 36.6219 27.7823L38.301 29.4614C38.3563 29.5166 38.4002 29.5821 38.4301 29.6542C38.46 29.7264 38.4754 29.8037 38.4754 29.8818C38.4754 29.9599 38.46 30.0372 38.4301 30.1094C38.4002 30.1815 38.3563 30.247 38.301 30.3022Z" fill="#FFC451"/>
<defs>
<filter id="filter0_d" x="0" y="0" width="85" height="85" filterUnits="userSpaceOnUse" color-interpolation-filters="sRGB">
<feFlood flood-opacity="0" result="BackgroundImageFix"/>
<feColorMatrix in="SourceAlpha" type="matrix" values="0 0 0 0 0 0 0 0 0 0 0 0 0 0 0 0 0 0 127 0" result="hardAlpha"/>
<feMorphology radius="2" operator="erode" in="SourceAlpha" result="effect1_dropShadow"/>
<feOffset dy="8"/>
<feGaussianBlur stdDeviation="13"/>
<feComposite in2="hardAlpha" operator="out"/>
<feColorMatrix type="matrix" values="0 0 0 0 0 0 0 0 0 0 0 0 0 0 0 0 0 0 0.1 0"/>
<feBlend mode="normal" in2="BackgroundImageFix" result="effect1_dropShadow"/>
<feBlend mode="normal" in="SourceGraphic" in2="effect1_dropShadow" result="shape"/>
</filter>
</defs>
</svg>
