<svg width="16" height="16" viewBox="0 0 16 16" fill="none" xmlns="http://www.w3.org/2000/svg">
<g clip-path="url(#clip0_2110_40)">
<path d="M15.8541 12.8541L11.0001 8.00008L15.8541 3.14608C15.9471 3.05193 15.9992 2.92492 15.9992 2.79258C15.9992 2.66023 15.9471 2.53322 15.8541 2.43908L13.5611 0.146076C13.5147 0.0995436 13.4596 0.0626219 13.399 0.0374289C13.3383 0.012236 13.2733 -0.000732422 13.2076 -0.000732422C13.1419 -0.000732422 13.0769 0.012236 13.0162 0.0374289C12.9555 0.0626219 12.9004 0.0995436 12.8541 0.146076L8.00008 5.00008L3.14608 0.146076C3.05231 0.0523407 2.92516 -0.000317003 2.79258 -0.000317003C2.65999 -0.000317003 2.53284 0.0523407 2.43908 0.146076L0.146076 2.43908C0.0995436 2.48544 0.0626219 2.54053 0.0374289 2.60119C0.012236 2.66185 -0.000732422 2.72689 -0.000732422 2.79258C-0.000732422 2.85826 0.012236 2.9233 0.0374289 2.98396C0.0626219 3.04462 0.0995436 3.09972 0.146076 3.14608L5.00008 8.00008L0.146076 12.8541C0.0523407 12.9478 -0.000317003 13.075 -0.000317003 13.2076C-0.000317003 13.3402 0.0523407 13.4673 0.146076 13.5611L2.43908 15.8541C2.48544 15.9006 2.54053 15.9375 2.60119 15.9627C2.66185 15.9879 2.72689 16.0009 2.79258 16.0009C2.85826 16.0009 2.9233 15.9879 2.98396 15.9627C3.04462 15.9375 3.09972 15.9006 3.14608 15.8541L8.00008 11.0001L12.8541 15.8541C12.9478 15.9478 13.075 16.0005 13.2076 16.0005C13.3402 16.0005 13.4673 15.9478 13.5611 15.8541L15.8541 13.5611C15.9006 13.5147 15.9375 13.4596 15.9627 13.399C15.9879 13.3383 16.0009 13.2733 16.0009 13.2076C16.0009 13.1419 15.9879 13.0769 15.9627 13.0162C15.9375 12.9555 15.9006 12.9004 15.8541 12.8541V12.8541Z" fill="white"/>
</g>
<defs>
<clipPath id="clip0_2110_40">
<rect width="16" height="16" fill="white"/>
</clipPath>
</defs>
</svg>
