<svg width="39" height="39" viewBox="0 0 39 39" fill="none" xmlns="http://www.w3.org/2000/svg">
<path fill-rule="evenodd" clip-rule="evenodd" d="M19.5 0C19.931 0 20.3443 0.171205 20.649 0.475952C20.9538 0.780698 21.125 1.19402 21.125 1.625V17.875H37.375C37.806 17.875 38.2193 18.0462 38.524 18.351C38.8288 18.6557 39 19.069 39 19.5C39 19.931 38.8288 20.3443 38.524 20.649C38.2193 20.9538 37.806 21.125 37.375 21.125H21.125V37.375C21.125 37.806 20.9538 38.2193 20.649 38.524C20.3443 38.8288 19.931 39 19.5 39C19.069 39 18.6557 38.8288 18.351 38.524C18.0462 38.2193 17.875 37.806 17.875 37.375V21.125H1.625C1.19402 21.125 0.780698 20.9538 0.475952 20.649C0.171205 20.3443 0 19.931 0 19.5C0 19.069 0.171205 18.6557 0.475952 18.351C0.780698 18.0462 1.19402 17.875 1.625 17.875H17.875V1.625C17.875 1.19402 18.0462 0.780698 18.351 0.475952C18.6557 0.171205 19.069 0 19.5 0Z" fill="white"/>
</svg>
