<svg width="15" height="15" viewBox="0 0 15 15" fill="none" xmlns="http://www.w3.org/2000/svg">
<path fill-rule="evenodd" clip-rule="evenodd" d="M4.375 1C3.5462 1 2.75134 1.32924 2.16529 1.91529C1.57924 2.50134 1.25 3.2962 1.25 4.125V10.375C1.25 11.2038 1.57924 11.9987 2.16529 12.5847C2.75134 13.1708 3.5462 13.5 4.375 13.5H10.625C11.4538 13.5 12.2487 13.1708 12.8347 12.5847C13.4208 11.9987 13.75 11.2038 13.75 10.375V4.125C13.75 3.2962 13.4208 2.50134 12.8347 1.91529C12.2487 1.32924 11.4538 1 10.625 1H4.375ZM9.83125 6.4275C9.88739 6.36758 9.93118 6.2972 9.96012 6.22036C9.98906 6.14352 10.0026 6.06173 9.99991 5.97967C9.99724 5.89761 9.97843 5.81687 9.94456 5.74208C9.91069 5.66728 9.86242 5.59989 9.8025 5.54375C9.74258 5.48761 9.6722 5.44382 9.59536 5.41488C9.51852 5.38594 9.43673 5.37242 9.35467 5.37509C9.27261 5.37776 9.19187 5.39657 9.11708 5.43044C9.04228 5.46431 8.97489 5.51258 8.91875 5.5725L6.99188 7.62875L6.04 6.78312C5.91529 6.67945 5.75516 6.62831 5.59344 6.64051C5.43172 6.65271 5.28107 6.7273 5.17333 6.84851C5.06558 6.96973 5.00917 7.12808 5.01601 7.29011C5.02286 7.45215 5.09242 7.60518 5.21 7.71688L6.61625 8.96688C6.73793 9.07496 6.89697 9.13132 7.05956 9.12397C7.22214 9.11661 7.37545 9.04613 7.48688 8.9275L9.83063 6.4275H9.83125Z" fill="#8F8F8F"/>
</svg>
