<svg width="12" height="12" viewBox="0 0 12 12" fill="none" xmlns="http://www.w3.org/2000/svg">
<path d="M4.5 1C5.42826 1 6.3185 1.36875 6.97487 2.02513C7.63125 2.6815 8 3.57174 8 4.5C8 5.285 7.75 6 7.305 6.595L7.705 7H8L11 10L10 11L7 8V7.705L6.595 7.305C5.99134 7.75931 5.25551 8.00342 4.5 8C3.57174 8 2.6815 7.63125 2.02513 6.97487C1.36875 6.3185 1 5.42826 1 4.5C1 3.57174 1.36875 2.6815 2.02513 2.02513C2.6815 1.36875 3.57174 1 4.5 1ZM4 2.5V4H2.5V5H4V6.5H5V5H6.5V4H5V2.5H4Z" fill="white"/>
</svg>
