<svg width="8" height="10" viewBox="0 0 8 10" fill="none" xmlns="http://www.w3.org/2000/svg">
<path d="M0.768 9.94295C0.848883 9.98502 0.939696 10.0043 1.03069 9.99863C1.12169 9.993 1.20943 9.96268 1.2845 9.91095L7.7845 5.41095C7.85092 5.36494 7.9052 5.30351 7.94269 5.23193C7.98017 5.16035 7.99976 5.08075 7.99976 4.99995C7.99976 4.91915 7.98017 4.83955 7.94269 4.76797C7.9052 4.6964 7.85092 4.63497 7.7845 4.58895L1.2845 0.0889535C1.20949 0.0370498 1.1217 0.00665595 1.03066 0.00106295C0.939609 -0.00453004 0.848767 0.014891 0.767965 0.057223C0.687163 0.0995551 0.619482 0.163185 0.572248 0.241223C0.525015 0.319262 0.500031 0.408734 0.5 0.499953V9.49995C0.499985 9.59122 0.524952 9.68075 0.572194 9.75884C0.619436 9.83693 0.687151 9.9006 0.768 9.94295Z" fill="white"/>
</svg>
