<svg width="12" height="12" viewBox="0 0 12 12" fill="none" xmlns="http://www.w3.org/2000/svg">
<path d="M9.04749 1.77923C7.91109 0.951833 7.10229 0.969833 6.79509 1.01963C6.75297 1.02692 6.71272 1.0425 6.67667 1.06547C6.64062 1.08844 6.60949 1.11834 6.58509 1.15343L3.81309 4.97783L2.45529 6.85163C2.28923 7.08085 2.19297 7.35318 2.17809 7.63583L2.00049 11.0102C1.99746 11.0662 2.00849 11.122 2.03256 11.1727C2.05663 11.2233 2.09298 11.2671 2.13831 11.3001C2.18364 11.333 2.23649 11.3542 2.29207 11.3615C2.34764 11.3688 2.40416 11.3621 2.45649 11.342L5.61009 10.136C5.87589 10.034 6.10689 9.85703 6.27369 9.62663L7.38009 8.09963L10.4017 3.93023C10.4281 3.89406 10.447 3.85298 10.4573 3.80939C10.4676 3.76581 10.4691 3.7206 10.4617 3.67643C10.4113 3.36083 10.1695 2.59523 9.04749 1.77923ZM5.61969 9.46163L4.39389 9.93503C4.37076 9.94414 4.34528 9.94543 4.32134 9.93872C4.2974 9.932 4.27631 9.91764 4.26129 9.89783C4.07739 9.66165 3.86012 9.45347 3.61629 9.27983C3.37588 9.1018 3.11119 8.95915 2.83029 8.85623C2.80696 8.84774 2.78699 8.83194 2.77337 8.81118C2.75975 8.79042 2.75319 8.76582 2.75469 8.74103L2.82789 7.42943L3.15729 6.97643C3.15729 6.97643 3.89469 6.87503 4.85709 7.57523C5.81829 8.27483 5.94969 9.00803 5.94969 9.00803L5.61969 9.46163Z" fill="white"/>
</svg>
