<svg width="8" height="10" viewBox="0 0 8 10" fill="none" xmlns="http://www.w3.org/2000/svg">
<path d="M7.732 0.0571699C7.65112 0.0150995 7.5603 -0.00414944 7.46931 0.00148773C7.37831 0.00712585 7.29057 0.0374374 7.2155 0.0891695L0.7155 4.58917C0.649081 4.63519 0.594803 4.69661 0.557315 4.76819C0.519826 4.83977 0.500244 4.91937 0.500244 5.00017C0.500244 5.08097 0.519826 5.16057 0.557315 5.23215C0.594803 5.30373 0.649081 5.36515 0.7155 5.41117L7.2155 9.91117C7.29051 9.96307 7.3783 9.99347 7.46934 9.99906C7.56039 10.0047 7.65123 9.98523 7.73204 9.9429C7.81284 9.90057 7.88052 9.83694 7.92775 9.7589C7.97498 9.68086 7.99997 9.59139 8 9.50017L8 0.50017C8.00002 0.408901 7.97505 0.319369 7.92781 0.241279C7.88056 0.163188 7.81285 0.0995188 7.732 0.0571699Z" fill="white"/>
</svg>
