<svg width="13" height="13" viewBox="0 0 13 13" fill="none" xmlns="http://www.w3.org/2000/svg">
<path d="M4.72916 0.833313C5.61001 0.833294 6.47237 1.08595 7.21395 1.56131C7.95552 2.03667 8.54517 2.71478 8.91293 3.51519C9.2807 4.31559 9.41114 5.20469 9.28879 6.077C9.16644 6.94931 8.79643 7.76822 8.22266 8.43656L12.2205 12.4344L11.7197 12.9352L7.72116 8.93665C7.15723 9.41889 6.48511 9.7577 5.76203 9.92421C5.03895 10.0907 4.28634 10.08 3.56829 9.89299C2.85024 9.70596 2.18804 9.34816 1.63807 8.85006C1.0881 8.35196 0.66666 7.72832 0.409649 7.03224C0.152638 6.33617 0.0676667 5.58829 0.161973 4.85231C0.256279 4.11632 0.527068 3.41403 0.951277 2.80524C1.37549 2.19646 1.94055 1.69922 2.59834 1.35588C3.25612 1.01253 3.98715 0.833256 4.72916 0.833313ZM4.72916 1.54165C3.69592 1.54165 2.705 1.9521 1.97439 2.68271C1.24378 3.41332 0.833322 4.40424 0.833322 5.43748C0.833322 6.47072 1.24378 7.46164 1.97439 8.19225C2.705 8.92286 3.69592 9.33331 4.72916 9.33331C5.76239 9.33331 6.75332 8.92286 7.48393 8.19225C8.21454 7.46164 8.62499 6.47072 8.62499 5.43748C8.62499 4.40424 8.21454 3.41332 7.48393 2.68271C6.75332 1.9521 5.76239 1.54165 4.72916 1.54165Z" fill="#3A3A3A"/>
</svg>
