<svg width="14" height="14" viewBox="0 0 14 14" fill="none" xmlns="http://www.w3.org/2000/svg">
<path d="M12.25 3.5H11.6667V2.91667C11.6667 2.76196 11.6052 2.61358 11.4958 2.50419C11.3864 2.39479 11.238 2.33333 11.0833 2.33333C10.9286 2.33333 10.7803 2.39479 10.6709 2.50419C10.5615 2.61358 10.5 2.76196 10.5 2.91667V3.5H9.91667C9.76196 3.5 9.61358 3.56146 9.50419 3.67086C9.39479 3.78025 9.33333 3.92862 9.33333 4.08333C9.33333 4.23804 9.39479 4.38642 9.50419 4.49581C9.61358 4.60521 9.76196 4.66667 9.91667 4.66667H10.5V5.25C10.5 5.40471 10.5615 5.55308 10.6709 5.66248C10.7803 5.77188 10.9286 5.83333 11.0833 5.83333C11.238 5.83333 11.3864 5.77188 11.4958 5.66248C11.6052 5.55308 11.6667 5.40471 11.6667 5.25V4.66667H12.25C12.4047 4.66667 12.5531 4.60521 12.6625 4.49581C12.7719 4.38642 12.8333 4.23804 12.8333 4.08333C12.8333 3.92862 12.7719 3.78025 12.6625 3.67086C12.5531 3.56146 12.4047 3.5 12.25 3.5ZM5.83333 6.41667C6.29482 6.41667 6.74595 6.27982 7.12966 6.02343C7.51338 5.76704 7.81245 5.40262 7.98905 4.97626C8.16566 4.5499 8.21186 4.08075 8.12183 3.62812C8.0318 3.1755 7.80957 2.75974 7.48325 2.43342C7.15693 2.1071 6.74117 1.88487 6.28854 1.79484C5.83592 1.7048 5.36677 1.75101 4.94041 1.92762C4.51404 2.10422 4.14963 2.40329 3.89324 2.787C3.63685 3.17072 3.5 3.62184 3.5 4.08333C3.5 4.70217 3.74583 5.29567 4.18342 5.73325C4.621 6.17084 5.2145 6.41667 5.83333 6.41667ZM9.33333 12.25C9.48804 12.25 9.63642 12.1885 9.74581 12.0791C9.85521 11.9698 9.91667 11.8214 9.91667 11.6667C9.91667 10.5837 9.48646 9.54509 8.72069 8.77931C7.95491 8.01354 6.9163 7.58333 5.83333 7.58333C4.75037 7.58333 3.71175 8.01354 2.94598 8.77931C2.18021 9.54509 1.75 10.5837 1.75 11.6667C1.75 11.8214 1.81146 11.9698 1.92085 12.0791C2.03025 12.1885 2.17862 12.25 2.33333 12.25" fill="white"/>
</svg>
