<svg width="26" height="26" viewBox="0 0 26 26" fill="none" xmlns="http://www.w3.org/2000/svg">
<path d="M5.1241 2.15367C5.75243 1.12595 7.31677 1.23717 7.78405 2.34362L11.4414 10.9959C11.8632 11.9933 11.0586 13.0752 9.95361 12.9964L1.3837 12.3847C0.278694 12.3053 -0.355419 11.1215 0.211527 10.1942L5.1241 2.15367Z" fill="#E450C4"/>
<path fill-rule="evenodd" clip-rule="evenodd" d="M20.2222 11.5556C21.7546 11.5556 23.2242 10.9469 24.3077 9.86332C25.3913 8.77977 26 7.31016 26 5.7778C26 4.24543 25.3913 2.77582 24.3077 1.69228C23.2242 0.60873 21.7546 0 20.2222 0C18.6898 0 17.2202 0.60873 16.1367 1.69228C15.0531 2.77582 14.4444 4.24543 14.4444 5.7778C14.4444 7.31016 15.0531 8.77977 16.1367 9.86332C17.2202 10.9469 18.6898 11.5556 20.2222 11.5556ZM22.4495 7.03086C22.5425 7.05351 22.639 7.05748 22.7334 7.04254C22.8279 7.02759 22.9185 6.99404 22.9999 6.94381C23.0812 6.89358 23.1519 6.82769 23.2076 6.74995C23.2633 6.67222 23.303 6.58419 23.3245 6.49097C23.3459 6.39776 23.3486 6.30122 23.3324 6.20695C23.3162 6.11269 23.2815 6.02258 23.2302 5.94185C23.1789 5.86112 23.1121 5.79139 23.0336 5.73669C22.9551 5.682 22.8666 5.64344 22.7731 5.62324L17.9949 4.52546C17.811 4.48969 17.6204 4.52675 17.4634 4.62881C17.3063 4.73088 17.1951 4.88998 17.1531 5.07252C17.1111 5.25506 17.1417 5.44678 17.2384 5.6072C17.335 5.76763 17.4903 5.88421 17.6713 5.93235L22.4495 7.03086Z" fill="#E450C4"/>
<path fill-rule="evenodd" clip-rule="evenodd" d="M18.1704 15.3805L10.3155 19.0436C9.96786 19.2015 9.655 19.4268 9.39498 19.7063C9.13496 19.9859 8.93293 20.3142 8.80057 20.6724C8.66822 21.0305 8.60817 21.4113 8.62388 21.7927C8.6396 22.1742 8.73077 22.5488 8.89214 22.8948C9.0535 23.2408 9.28185 23.5514 9.56399 23.8087C9.84613 24.0659 10.1765 24.2646 10.5359 24.3934C10.8953 24.5222 11.2767 24.5785 11.658 24.559C12.0393 24.5394 12.4129 24.4445 12.7573 24.2797L20.6122 20.6173C21.2989 20.2888 21.8281 19.7025 22.0848 18.9859C22.3416 18.2693 22.3052 17.4803 21.9834 16.7904C21.6617 16.1006 21.0807 15.5656 20.3667 15.3017C19.6527 15.0378 18.8634 15.0664 18.1704 15.3812V15.3805ZM9.70519 17.7342C8.66356 18.2199 7.85753 19.0994 7.4644 20.1794C7.07128 21.2594 7.12327 22.4513 7.60893 23.4929C8.0946 24.5345 8.97415 25.3405 10.0541 25.7337C11.1341 26.1268 12.326 26.0748 13.3676 25.5891L21.2225 21.926C22.2641 21.4403 23.0702 20.5608 23.4633 19.4808C23.8564 18.4009 23.8044 17.209 23.3188 16.1674C22.8331 15.1257 21.9535 14.3197 20.8736 13.9266C19.7936 13.5334 18.6017 13.5854 17.5601 14.0711L9.70519 17.7342Z" fill="#E450C4"/>
<path d="M7.60927 23.4932C7.36872 22.9775 7.23211 22.4194 7.20726 21.8508C7.18241 21.2823 7.26978 20.7144 7.46441 20.1796C7.65903 19.6449 7.95709 19.1536 8.34156 18.7341C8.72603 18.3145 9.18938 17.9747 9.70516 17.7342L14.24 15.6203L17.9024 23.4752L13.3676 25.5891C12.326 26.0747 11.1342 26.1267 10.0544 25.7337C8.97451 25.3406 8.09499 24.5347 7.60927 23.4932Z" fill="#E450C4"/>
<path fill-rule="evenodd" clip-rule="evenodd" d="M18.1704 15.3805L10.3155 19.0436C9.96786 19.2015 9.655 19.4268 9.39498 19.7063C9.13496 19.9859 8.93293 20.3142 8.80057 20.6724C8.66822 21.0305 8.60817 21.4113 8.62388 21.7927C8.6396 22.1742 8.73077 22.5488 8.89214 22.8948C9.0535 23.2408 9.28185 23.5514 9.56399 23.8087C9.84613 24.0659 10.1765 24.2646 10.5359 24.3934C10.8953 24.5222 11.2767 24.5785 11.658 24.559C12.0393 24.5394 12.4129 24.4445 12.7573 24.2797L20.6122 20.6173C21.2989 20.2888 21.8281 19.7025 22.0848 18.9859C22.3416 18.2693 22.3052 17.4803 21.9834 16.7904C21.6617 16.1006 21.0807 15.5656 20.3667 15.3017C19.6527 15.0378 18.8634 15.0664 18.1704 15.3812V15.3805ZM9.70519 17.7342C8.66356 18.2199 7.85753 19.0994 7.4644 20.1794C7.07128 21.2594 7.12327 22.4513 7.60893 23.4929C8.0946 24.5345 8.97415 25.3405 10.0541 25.7337C11.1341 26.1268 12.326 26.0748 13.3676 25.5891L21.2225 21.926C22.2641 21.4403 23.0702 20.5608 23.4633 19.4808C23.8564 18.4009 23.8044 17.209 23.3188 16.1674C22.8331 15.1257 21.9535 14.3197 20.8736 13.9266C19.7936 13.5334 18.6017 13.5854 17.5601 14.0711L9.70519 17.7342Z" fill="#E450C4"/>
<path fill-rule="evenodd" clip-rule="evenodd" d="M13.5416 17.5399L10.3155 19.0429C9.62102 19.3667 9.08364 19.9531 8.82156 20.6731C8.55948 21.3932 8.59415 22.1878 8.91796 22.8822C9.24177 23.5767 9.82818 24.1141 10.5482 24.3762C11.2682 24.6382 12.0629 24.6036 12.7573 24.2798L15.9828 22.7761L13.5416 17.5399ZM14.24 15.6203L17.9024 23.4752L13.3676 25.5891C12.8518 25.8296 12.2938 25.9662 11.7252 25.991C11.1567 26.0158 10.5889 25.9283 10.0541 25.7337C9.51937 25.539 9.0282 25.2409 8.60866 24.8565C8.18912 24.472 7.84941 24.0086 7.60893 23.4929C7.36845 22.9771 7.23192 22.419 7.20712 21.8505C7.18232 21.282 7.26975 20.7142 7.4644 20.1794C7.85753 19.0995 8.66356 18.2199 9.70519 17.7342L14.24 15.6203Z" fill="#E450C4"/>
</svg>
