<svg width="29" height="18" viewBox="0 0 29 18" fill="none" xmlns="http://www.w3.org/2000/svg">
<path d="M27.55 0H1.45C0.649328 0 0 0.671719 0 1.5V16.5C0 17.3283 0.649328 18 1.45 18H27.55C28.3507 18 29 17.3283 29 16.5V1.5C29 0.671719 28.3507 0 27.55 0ZM2.175 15.75V12.75C3.7768 12.75 5.075 14.093 5.075 15.75H2.175ZM2.175 5.25V2.25H5.075C5.075 3.90703 3.7768 5.25 2.175 5.25ZM14.5 13.5C12.4976 13.5 10.875 11.4848 10.875 9C10.875 6.51469 12.4981 4.5 14.5 4.5C16.5019 4.5 18.125 6.51469 18.125 9C18.125 11.4858 16.5015 13.5 14.5 13.5ZM26.825 15.75H23.925C23.925 14.093 25.2232 12.75 26.825 12.75V15.75ZM26.825 5.25C25.2232 5.25 23.925 3.90703 23.925 2.25H26.825V5.25Z" fill="#38C43E"/>
</svg>
