<svg width="26" height="26" viewBox="0 0 26 26" fill="none" xmlns="http://www.w3.org/2000/svg">
<path fill-rule="evenodd" clip-rule="evenodd" d="M3.08332 13C3.45905 13 3.81938 13.1493 4.08506 13.4149C4.35073 13.6806 4.49999 14.0409 4.49999 14.4167V24.3333C4.49999 24.7091 4.35073 25.0694 4.08506 25.3351C3.81938 25.6007 3.45905 25.75 3.08332 25.75C2.7076 25.75 2.34727 25.6007 2.08159 25.3351C1.81591 25.0694 1.66666 24.7091 1.66666 24.3333V14.4167C1.66666 14.0409 1.81591 13.6806 2.08159 13.4149C2.34727 13.1493 2.7076 13 3.08332 13Z" fill="#099EA7"/>
<path d="M6.27082 8.04166C4.95545 9.64958 2.97707 13.4555 2.97707 17.9583C2.97707 17.9583 1.66666 15.6917 1.66666 14.3968C1.66666 11.2568 3.64007 8.04166 6.27082 8.04166Z" fill="#099EA7"/>
<path fill-rule="evenodd" clip-rule="evenodd" d="M1.81471 9.23875C2.79858 7.80791 4.33283 6.625 6.27083 6.625C6.58515 6.625 6.89055 6.72953 7.13894 6.92214C7.38733 7.11475 7.56461 7.38449 7.64288 7.68891L8.68483 11.7455H11.2292C11.6049 11.7455 11.9652 11.8948 12.2309 12.1605C12.4966 12.4261 12.6458 12.7865 12.6458 13.1622C12.6458 13.5379 12.4966 13.8983 12.2309 14.1639C11.9652 14.4296 11.6049 14.5789 11.2292 14.5789H7.58621C7.27189 14.5789 6.9665 14.4743 6.71811 14.2817C6.46971 14.0891 6.29243 13.8194 6.21417 13.515L5.74879 11.7037C5.01 13.3853 4.39375 15.5656 4.39375 17.9583C4.39374 18.2702 4.29083 18.5733 4.10098 18.8207C3.91114 19.0681 3.64497 19.2459 3.34375 19.3267C3.04253 19.4074 2.72309 19.3864 2.43498 19.2671C2.14687 19.1478 1.90619 18.9367 1.75025 18.6667L2.97708 17.9583L1.75025 18.6667L1.74812 18.6631L1.74388 18.656L1.72971 18.6312C1.65706 18.504 1.58692 18.3753 1.51933 18.2452C1.34586 17.9167 1.18263 17.5829 1.02987 17.2443C0.706875 16.5254 0.25 15.3821 0.25 14.3968C0.25 12.5516 0.82375 10.6809 1.81471 9.23945V9.23875Z" fill="#099EA7"/>
<path fill-rule="evenodd" clip-rule="evenodd" d="M11.5373 3.59546C11.4736 3.96646 11.3367 4.32105 11.1344 4.63854C10.9322 4.95603 10.6687 5.23005 10.3595 5.4446C10.0502 5.65916 9.70122 5.80995 9.33301 5.88817C8.9648 5.96639 8.5847 5.97047 8.2149 5.90018C7.84509 5.82989 7.493 5.68663 7.17917 5.47877C6.86533 5.27091 6.59606 5.00262 6.38705 4.68954C6.17805 4.37647 6.0335 4.0249 5.96186 3.65536C5.89022 3.28581 5.89292 2.9057 5.96979 2.53721C7.05 3.19312 7.99138 3.56287 8.97242 3.69746C9.80542 3.81079 10.6299 3.74987 11.5366 3.59546H11.5373ZM6.58604 1.25371C6.91032 0.870571 7.33052 0.58041 7.80368 0.41288C8.27684 0.24535 8.78601 0.20646 9.27912 0.300184C9.77224 0.393909 10.2316 0.616888 10.6103 0.946329C10.989 1.27577 11.2735 1.69986 11.4346 2.17525C10.5421 2.33462 9.84084 2.38633 9.16438 2.29354C8.39938 2.18871 7.61171 1.89121 6.58604 1.25371Z" fill="#099EA7"/>
<path d="M25.0417 5.91666C25.0417 6.66811 24.7432 7.38878 24.2118 7.92013C23.6804 8.45148 22.9598 8.75 22.2083 8.75C21.4569 8.75 20.7362 8.45148 20.2049 7.92013C19.6735 7.38878 19.375 6.66811 19.375 5.91666C19.375 5.16522 19.6735 4.44455 20.2049 3.91319C20.7362 3.38184 21.4569 3.08333 22.2083 3.08333C22.9598 3.08333 23.6804 3.38184 24.2118 3.91319C24.7432 4.44455 25.0417 5.16522 25.0417 5.91666Z" fill="#099EA7"/>
<path fill-rule="evenodd" clip-rule="evenodd" d="M18.1156 8.78187C18.4326 8.71362 18.7635 8.75621 19.0529 8.90253C19.3423 9.04886 19.5728 9.29005 19.7058 9.58583L21.5814 13.7558H24.3333C24.709 13.7558 25.0694 13.905 25.3351 14.1707C25.6007 14.4364 25.75 14.7967 25.75 15.1725C25.75 15.5482 25.6007 15.9085 25.3351 16.1742C25.0694 16.4399 24.709 16.5891 24.3333 16.5891H20.6649C20.3919 16.5891 20.1247 16.5102 19.8955 16.3619C19.6663 16.2136 19.4848 16.0023 19.3729 15.7533L17.8018 12.2605C17.2741 12.8881 16.5877 14.1794 16.5438 16.7513C16.5834 16.7811 16.6359 16.8186 16.7039 16.8611C17.0616 17.0864 17.6034 17.3194 18.2459 17.5404C18.8721 17.7557 19.5159 17.9357 20.0422 18.0766L20.305 18.1475C20.4438 18.1839 20.5824 18.2209 20.7208 18.2587C20.8125 18.2837 20.9037 18.3106 20.9942 18.3394C21.0374 18.3536 21.2266 18.4124 21.4015 18.5193C21.6296 18.6575 21.7883 18.8473 21.8209 18.8855L21.8251 18.8905C21.891 18.9684 21.9569 19.0534 22.0164 19.1349C22.1389 19.2985 22.2834 19.5075 22.435 19.7334C22.7424 20.1896 23.1171 20.7725 23.4769 21.3399C23.9102 22.0236 24.3392 22.71 24.764 23.399L24.883 23.5917L23.6746 24.3333L22.4676 25.0742L22.3521 24.8865C21.9333 24.2077 21.5106 23.5312 21.0842 22.8572C20.7279 22.2962 20.3688 21.7387 20.0833 21.3151C19.9884 21.1735 19.9055 21.053 19.8354 20.9539L19.5988 20.8908L19.3077 20.8129C18.6393 20.6379 17.977 20.4399 17.3222 20.2193C16.6167 19.9757 15.8291 19.6597 15.1937 19.2595C14.8757 19.0591 14.5335 18.7991 14.2573 18.4655C13.9761 18.1241 13.7076 17.6325 13.7076 17.0134C13.7076 13.6828 14.6058 11.6152 15.7002 10.3579C16.1322 9.85353 16.6541 9.43369 17.2394 9.11975C17.4611 9.00287 17.6552 8.92354 17.8053 8.87183C17.8998 8.83892 17.9957 8.81056 18.0929 8.78683L18.1042 8.784L18.1099 8.78258H18.112C18.1134 8.78258 18.1149 8.78187 18.4131 10.1667L18.1149 8.78187H18.1156ZM19.6767 20.7385C19.6743 20.7358 19.6719 20.7329 19.6697 20.73L19.6767 20.7385ZM23.6753 24.3333L22.4683 25.0742C22.6649 25.3945 22.9806 25.6235 23.3461 25.7109C23.7115 25.7983 24.0967 25.7369 24.4169 25.5403C24.7371 25.3437 24.9661 25.028 25.0535 24.6625C25.1409 24.2971 25.0796 23.9119 24.883 23.5917L23.6746 24.3333H23.6753Z" fill="#099EA7"/>
<path fill-rule="evenodd" clip-rule="evenodd" d="M18.9216 10.7149C19.1519 10.8772 19.3083 11.1244 19.3564 11.402C19.4045 11.6796 19.3403 11.965 19.1781 12.1953C18.3585 13.3577 17.9109 14.2552 17.6849 15.2107C17.4561 16.1783 17.4334 17.2897 17.5956 18.9153C17.6111 19.0549 17.5986 19.1962 17.5591 19.331C17.5195 19.4657 17.4537 19.5913 17.3653 19.7005C17.2769 19.8096 17.1677 19.9002 17.0441 19.9669C16.9205 20.0336 16.7849 20.0751 16.6451 20.0891C16.5053 20.103 16.3642 20.0891 16.2298 20.0482C16.0955 20.0072 15.9706 19.9401 15.8623 19.8505C15.7541 19.761 15.6647 19.6509 15.5993 19.5266C15.5339 19.4023 15.4938 19.2663 15.4813 19.1264C15.3099 17.4051 15.3091 16.0239 15.6173 14.7212C15.9282 13.408 16.5331 12.2591 17.4412 10.9713C17.6036 10.741 17.8507 10.5846 18.1283 10.5366C18.406 10.4885 18.6913 10.5526 18.9216 10.7149Z" fill="#099EA7"/>
<path d="M6.625 18.6667H17.25V20.7917H6.625V18.6667Z" fill="#099EA7"/>
<path d="M6.625 25.75V20.0833H8.04167V25.75H6.625Z" fill="#099EA7"/>
<path d="M15.8333 25.75V20.0833H17.25V25.75H15.8333Z" fill="#099EA7"/>
<path d="M13.7083 2.72916C13.7083 3.70666 13.2323 4.5 12.6458 4.5C12.0593 4.5 11.5833 3.70666 11.5833 2.72916C11.5833 1.75166 12.0593 0.958328 12.6458 0.958328C13.2323 0.958328 13.7083 1.75166 13.7083 2.72916Z" fill="#099EA7"/>
</svg>
