<svg width="32" height="32" viewBox="0 0 32 32" fill="none" xmlns="http://www.w3.org/2000/svg">
<path d="M16 4C10.89 4 6.617 7.16 4.875 11.625L6.719 12.375C8.176 8.64 11.71 6 16 6C19.24 6 22.134 7.59 23.938 10H20V12H27V5H25V8.094C23.8798 6.8078 22.4967 5.7768 20.9442 5.07055C19.3916 4.36431 17.7056 3.99925 16 4V4ZM25.28 19.625C23.824 23.36 20.29 26 16 26C12.724 26 9.843 24.388 8.03 22H12V20H5V27H7V23.906C9.19 26.386 12.395 28 16 28C21.11 28 25.383 24.84 27.125 20.375L25.281 19.625H25.28Z" fill="#606060"/>
</svg>
