<svg width="21" height="24" viewBox="0 0 21 24" fill="none" xmlns="http://www.w3.org/2000/svg">
<path d="M6.3913 11.0769C5.18053 11.0769 4.01935 10.5907 3.16321 9.72511C2.30706 8.85956 1.82609 7.68561 1.82609 6.46154V2.76923C1.82609 2.52442 1.92228 2.28963 2.09351 2.11652C2.26474 1.94341 2.49698 1.84615 2.73913 1.84615H3.65217C3.89433 1.84615 4.12656 1.7489 4.29779 1.57579C4.46902 1.40268 4.56522 1.16789 4.56522 0.923077C4.56522 0.678262 4.46902 0.443473 4.29779 0.270363C4.12656 0.0972524 3.89433 0 3.65217 0H2.73913C2.01267 0 1.31596 0.291757 0.802272 0.811089C0.288586 1.33042 0 2.03479 0 2.76923V6.46154C0.00117364 7.50437 0.252705 8.53133 0.732991 9.45423C1.21328 10.3771 1.90796 11.1684 2.75739 11.76C3.57349 12.4874 4.23534 13.3745 4.70298 14.3676C5.17062 15.3608 5.43435 16.4394 5.47826 17.5385C5.47826 19.2522 6.15163 20.8957 7.35023 22.1075C8.54883 23.3192 10.1745 24 11.8696 24C13.5646 24 15.1903 23.3192 16.3889 22.1075C17.5875 20.8957 18.2609 19.2522 18.2609 17.5385V16.4862C19.1215 16.2615 19.8716 15.7272 20.3705 14.9834C20.8694 14.2396 21.0829 13.3374 20.9709 12.4458C20.8589 11.5543 20.4291 10.7347 19.7621 10.1406C19.0951 9.54654 18.2367 9.21878 17.3478 9.21878C16.4589 9.21878 15.6005 9.54654 14.9335 10.1406C14.2665 10.7347 13.8368 11.5543 13.7248 12.4458C13.6127 13.3374 13.8262 14.2396 14.3251 14.9834C14.824 15.7272 15.5741 16.2615 16.4348 16.4862V17.5385C16.4348 18.7625 15.9538 19.9365 15.0977 20.802C14.2415 21.6676 13.0803 22.1538 11.8696 22.1538C10.6588 22.1538 9.49761 21.6676 8.64147 20.802C7.78532 19.9365 7.30434 18.7625 7.30434 17.5385C7.35056 16.4381 7.61715 15.3586 8.08796 14.3653C8.55878 13.3721 9.22404 12.4858 10.0435 11.76C10.8895 11.1663 11.5807 10.3742 12.0577 9.4514C12.5347 8.52864 12.7835 7.50274 12.7826 6.46154V2.76923C12.7826 2.03479 12.494 1.33042 11.9803 0.811089C11.4666 0.291757 10.7699 0 10.0435 0H9.13043C8.88828 0 8.65604 0.0972524 8.48481 0.270363C8.31358 0.443473 8.21739 0.678262 8.21739 0.923077C8.21739 1.16789 8.31358 1.40268 8.48481 1.57579C8.65604 1.7489 8.88828 1.84615 9.13043 1.84615H10.0435C10.2856 1.84615 10.5179 1.94341 10.6891 2.11652C10.8603 2.28963 10.9565 2.52442 10.9565 2.76923V6.46154C10.9565 7.06764 10.8384 7.66781 10.609 8.22777C10.3796 8.78773 10.0433 9.29653 9.6194 9.72511C9.19548 10.1537 8.69221 10.4937 8.13833 10.7256C7.58446 10.9575 6.99081 11.0769 6.3913 11.0769ZM17.3478 14.7692C16.8635 14.7692 16.399 14.5747 16.0566 14.2285C15.7141 13.8823 15.5217 13.4127 15.5217 12.9231C15.5217 12.4334 15.7141 11.9639 16.0566 11.6176C16.399 11.2714 16.8635 11.0769 17.3478 11.0769C17.8321 11.0769 18.2966 11.2714 18.6391 11.6176C18.9815 11.9639 19.1739 12.4334 19.1739 12.9231C19.1739 13.4127 18.9815 13.8823 18.6391 14.2285C18.2966 14.5747 17.8321 14.7692 17.3478 14.7692Z" fill="#AEB100"/>
</svg>
