<svg width="22" height="26" viewBox="0 0 22 26" fill="none" xmlns="http://www.w3.org/2000/svg">
<path d="M14.563 15.9C14.404 15.848 13.399 15.395 14.027 13.486H14.018C15.655 11.8 16.906 9.087 16.906 6.416C16.906 2.309 14.175 0.155998 11.001 0.155998C7.82503 0.155998 5.10903 2.308 5.10903 6.416C5.10903 9.098 6.35303 11.822 8.00003 13.504C8.64203 15.188 7.49403 15.813 7.25403 15.9C3.93003 17.103 0.0300293 19.294 0.0300293 21.457V22.268C0.0300293 25.215 5.74403 25.885 11.032 25.885C16.328 25.885 21.97 25.215 21.97 22.268V21.457C21.97 19.229 18.051 17.055 14.563 15.9ZM9.04703 24.609C9.04703 22.06 10.67 18.619 10.67 18.619L9.54703 17.738C9.54703 16.896 11 16.015 11 16.015C11 16.015 12.449 16.91 12.449 17.738L11.33 18.619C11.33 18.619 12.953 22.047 12.953 24.637C12.953 25.043 9.04703 24.949 9.04703 24.609Z" fill="#5B71E4"/>
</svg>
