<svg width="123" height="123" viewBox="0 0 123 123" fill="none" xmlns="http://www.w3.org/2000/svg">
<path d="M108.797 100.727C115.11 93.1378 119.501 84.1406 121.598 74.4969C123.695 64.8531 123.437 54.8465 120.845 45.3236C118.253 35.8007 113.403 27.0417 106.707 19.7874C100.01 12.5332 91.664 6.99713 82.3734 3.64762C73.0828 0.298117 63.1215 -0.766313 53.3321 0.544376C43.5427 1.85506 34.2133 5.50231 26.133 11.1776C18.0527 16.8529 11.4593 24.3892 6.91048 33.1491C2.3617 41.9089 -0.00862755 51.6346 2.35962e-05 61.5034C0.00334334 75.8497 5.06309 89.7367 14.2914 100.727L14.2035 100.802C14.5112 101.171 14.8629 101.487 15.1794 101.852C15.575 102.304 16.0015 102.73 16.4103 103.17C17.6412 104.505 18.9072 105.787 20.2348 106.991C20.6392 107.36 21.0568 107.703 21.4657 108.054C22.8724 109.266 24.3187 110.417 25.8177 111.489C26.0111 111.621 26.187 111.792 26.3804 111.928V111.875C36.6763 119.115 48.9587 123 61.5484 123C74.1381 123 86.4205 119.115 96.7164 111.875V111.928C96.9098 111.792 97.0812 111.621 97.279 111.489C98.7737 110.413 100.224 109.266 101.631 108.054C102.04 107.703 102.458 107.356 102.862 106.991C104.19 105.783 105.456 104.505 106.686 103.17C107.095 102.73 107.517 102.304 107.917 101.852C108.229 101.487 108.586 101.171 108.893 100.798L108.797 100.727ZM61.544 26.3643C65.4565 26.3643 69.2811 27.5235 72.5343 29.6954C75.7874 31.8673 78.3229 34.9543 79.8202 38.566C81.3174 42.1777 81.7092 46.1519 80.9459 49.9861C80.1826 53.8203 78.2985 57.3422 75.532 60.1065C72.7654 62.8708 69.2406 64.7533 65.4033 65.516C61.5659 66.2786 57.5884 65.8872 53.9737 64.3912C50.3591 62.8952 47.2695 60.3617 45.0959 57.1113C42.9222 53.8608 41.762 50.0393 41.762 46.13C41.762 40.8878 43.8462 35.8603 47.556 32.1535C51.2659 28.4467 56.2975 26.3643 61.544 26.3643ZM26.4068 100.727C26.483 94.9601 28.8287 89.4546 32.9364 85.4021C37.0441 81.3496 42.5834 79.0759 48.356 79.0729H74.732C80.5046 79.0759 86.0439 81.3496 90.1516 85.4021C94.2592 89.4546 96.6049 94.9601 96.6812 100.727C87.0401 109.408 74.5221 114.212 61.544 114.212C48.5659 114.212 36.0479 109.408 26.4068 100.727Z" fill="#9C9C9C"/>
</svg>
