<svg width="14" height="12" viewBox="0 0 14 12" fill="none" xmlns="http://www.w3.org/2000/svg">
<path d="M7.2856 0.0985269C7.20279 0.0346759 7.1008 0 6.9958 0C6.8908 0 6.78881 0.0346759 6.706 0.0985269L0 5.27017L0.580067 5.99572L1.4 5.3634V11.0769C1.40049 11.3216 1.49898 11.5561 1.67391 11.7291C1.84884 11.9021 2.08595 11.9995 2.33333 12H11.6667C11.9141 11.9995 12.1512 11.9021 12.3261 11.7291C12.501 11.5561 12.5995 11.3216 12.6 11.0769V5.36756L13.4199 5.99988L14 5.27432L7.2856 0.0985269ZM7.93333 11.0769H6.06667V7.38452H7.93333V11.0769ZM8.86667 11.0769V7.38452C8.86642 7.13978 8.76801 6.90513 8.59303 6.73206C8.41805 6.559 8.18079 6.46167 7.93333 6.46143H6.06667C5.81921 6.46167 5.58195 6.559 5.40697 6.73206C5.23199 6.90513 5.13358 7.13978 5.13333 7.38452V11.0769H2.33333V4.64385L7 1.04839L11.6667 4.64847V11.0769H8.86667Z" fill="#030303"/>
</svg>
