<svg width="15" height="15" viewBox="0 0 15 15" fill="none" xmlns="http://www.w3.org/2000/svg">
<path d="M10.4917 5.13333L8.02916 7.55416C7.76352 7.42621 7.46121 7.39627 7.17563 7.46965C6.89006 7.54302 6.63962 7.71498 6.46856 7.95513C6.2975 8.19529 6.21685 8.48819 6.24084 8.78206C6.26484 9.07593 6.39194 9.35185 6.59969 9.56108C6.80745 9.7703 7.08247 9.89935 7.37616 9.92543C7.66986 9.9515 7.96331 9.87291 8.20467 9.70356C8.44603 9.5342 8.61976 9.28498 8.69514 8.99994C8.77053 8.71489 8.74274 8.41237 8.61666 8.14583L11.0833 5.725L10.4917 5.13333Z" fill="#595959"/>
<path d="M7.49999 1.77083C6.18862 1.76933 4.90421 2.14314 3.79845 2.84811C2.69269 3.55309 1.81178 4.55977 1.25974 5.74929C0.707698 6.9388 0.507597 8.26145 0.683067 9.56102C0.858537 10.8606 1.40225 12.0828 2.24999 13.0833L2.37499 13.2292H12.625L12.75 13.0833C13.5977 12.0828 14.1414 10.8606 14.3169 9.56102C14.4924 8.26145 14.2923 6.9388 13.7402 5.74929C13.1882 4.55977 12.3073 3.55309 11.2015 2.84811C10.0958 2.14314 8.81135 1.76933 7.49999 1.77083V1.77083ZM12.225 12.3958H2.77499C2.02735 11.4603 1.57613 10.3228 1.47915 9.12917H2.91665V8.29583H1.47915C1.54893 6.9728 2.05434 5.71 2.91665 4.70417L3.93749 5.725L4.52499 5.1375L3.51249 4.1125C4.50551 3.23481 5.76103 2.71033 7.08332 2.62083V4.07917H7.91665V2.625C9.37727 2.73092 10.7494 3.36484 11.7768 4.40838C12.8043 5.45193 13.4168 6.83375 13.5 8.29583H12.05V9.12917H13.5208C13.4238 10.3228 12.9726 11.4603 12.225 12.3958V12.3958Z" fill="#595959"/>
</svg>
