<svg width="16" height="16" viewBox="0 0 16 16" fill="none" xmlns="http://www.w3.org/2000/svg">
<path d="M2.95831 0.375H7.70831C8.3382 0.375 8.94229 0.625223 9.38769 1.07062C9.83309 1.51602 10.0833 2.12011 10.0833 2.75V5.91667H9.29165V2.75C9.29165 2.33007 9.12483 1.92735 8.8279 1.63041C8.53097 1.33348 8.12824 1.16667 7.70831 1.16667H2.95831C2.53839 1.16667 2.13566 1.33348 1.83873 1.63041C1.54179 1.92735 1.37498 2.33007 1.37498 2.75V13.0417C1.37498 13.4616 1.54179 13.8643 1.83873 14.1613C2.13566 14.4582 2.53839 14.625 2.95831 14.625H7.70831C8.12824 14.625 8.53097 14.4582 8.8279 14.1613C9.12483 13.8643 9.29165 13.4616 9.29165 13.0417V9.875H10.0833V13.0417C10.0833 13.6716 9.83309 14.2756 9.38769 14.721C8.94229 15.1664 8.3382 15.4167 7.70831 15.4167H2.95831C2.32842 15.4167 1.72433 15.1664 1.27893 14.721C0.833536 14.2756 0.583313 13.6716 0.583313 13.0417V2.75C0.583313 2.12011 0.833536 1.51602 1.27893 1.07062C1.72433 0.625223 2.32842 0.375 2.95831 0.375ZM5.33331 7.5H14.2396L11.6666 4.92708L12.1923 4.33333L15.7548 7.89583L12.1923 11.4583L11.6666 10.8646L14.2396 8.29167H5.33331V7.5Z" fill="#595959"/>
</svg>
