<svg width="20" height="20" viewBox="0 0 20 20" fill="none" xmlns="http://www.w3.org/2000/svg">
<path fill-rule="evenodd" clip-rule="evenodd" d="M6.17084 4.17208C6.1696 4.17366 6.16849 4.17533 6.1675 4.17708L3.3375 8.80833L3.33833 8.80916C3.33965 8.80989 3.34105 8.81045 3.3425 8.81083C3.34735 8.81246 3.35239 8.81344 3.3575 8.81375L8.30208 9.16625C8.31042 9.16708 8.31542 9.16625 8.31792 9.16625C8.32248 9.16541 8.32668 9.16323 8.33 9.16L6.22334 4.17666L6.22167 4.1725C6.21468 4.16895 6.207 4.16696 6.19917 4.16666C6.19038 4.16582 6.18152 4.16711 6.17334 4.17041L6.17208 4.17083L6.17125 4.17208H6.17084ZM6.99084 3.85208C6.72125 3.21375 5.81875 3.14958 5.45667 3.7425L2.62167 8.38125C2.29458 8.91625 2.66 9.59958 3.29792 9.645L8.24208 9.9975C8.87959 10.0433 9.34375 9.41916 9.10042 8.84333L6.99084 3.85208Z" fill="#595959"/>
<path fill-rule="evenodd" clip-rule="evenodd" d="M14.1666 8.33333C14.495 8.33333 14.82 8.26867 15.1234 8.14303C15.4267 8.0174 15.7023 7.83325 15.9344 7.6011C16.1666 7.36895 16.3507 7.09336 16.4763 6.79004C16.602 6.48673 16.6666 6.16164 16.6666 5.83333C16.6666 5.50503 16.602 5.17994 16.4763 4.87662C16.3507 4.57331 16.1666 4.29771 15.9344 4.06557C15.7023 3.83342 15.4267 3.64927 15.1234 3.52363C14.82 3.398 14.495 3.33333 14.1666 3.33333C13.5036 3.33333 12.8677 3.59673 12.3989 4.06557C11.93 4.53441 11.6666 5.17029 11.6666 5.83333C11.6666 6.49637 11.93 7.13226 12.3989 7.6011C12.8677 8.06994 13.5036 8.33333 14.1666 8.33333ZM14.1666 9.16667C15.0507 9.16667 15.8985 8.81548 16.5237 8.19036C17.1488 7.56524 17.5 6.71739 17.5 5.83333C17.5 4.94928 17.1488 4.10143 16.5237 3.47631C15.8985 2.85119 15.0507 2.5 14.1666 2.5C13.2826 2.5 12.4347 2.85119 11.8096 3.47631C11.1845 4.10143 10.8333 4.94928 10.8333 5.83333C10.8333 6.71739 11.1845 7.56524 11.8096 8.19036C12.4347 8.81548 13.2826 9.16667 14.1666 9.16667Z" fill="#595959"/>
<path fill-rule="evenodd" clip-rule="evenodd" d="M15.9509 6.24376C15.926 6.35136 15.8595 6.44471 15.7659 6.5033C15.6723 6.5619 15.5593 6.58094 15.4517 6.55626L12.695 5.92292C12.5873 5.89817 12.4938 5.83163 12.4351 5.73794C12.3764 5.64425 12.3574 5.53108 12.3821 5.42334C12.4069 5.3156 12.4734 5.2221 12.5671 5.16341C12.6608 5.10473 12.7739 5.08567 12.8817 5.11042L15.6384 5.74417C15.6917 5.75646 15.7421 5.77912 15.7866 5.81088C15.8312 5.84263 15.8691 5.88285 15.8981 5.92924C15.9271 5.97563 15.9467 6.02728 15.9557 6.08125C15.9648 6.13521 15.9631 6.19043 15.9509 6.24376Z" fill="#595959"/>
<path fill-rule="evenodd" clip-rule="evenodd" d="M12.9829 11.3733L8.45123 13.4867C8.25068 13.5778 8.07019 13.7077 7.92018 13.869C7.77016 14.0303 7.65361 14.2197 7.57725 14.4263C7.50089 14.6329 7.46625 14.8526 7.47531 15.0727C7.48438 15.2928 7.53698 15.5089 7.63008 15.7085C7.72317 15.9081 7.85491 16.0873 8.01768 16.2357C8.18045 16.3841 8.37103 16.4988 8.57838 16.5731C8.78574 16.6474 9.00577 16.6798 9.22574 16.6686C9.44572 16.6573 9.66129 16.6026 9.85998 16.5075L14.3916 14.3946C14.7878 14.205 15.0931 13.8668 15.2412 13.4534C15.3894 13.0399 15.3683 12.5848 15.1827 12.1868C14.9971 11.7888 14.6619 11.4801 14.25 11.3279C13.8381 11.1756 13.3827 11.1921 12.9829 11.3738V11.3733ZM8.09914 12.7312C7.49821 13.0114 7.03319 13.5189 6.80639 14.1419C6.57958 14.765 6.60958 15.4526 6.88977 16.0535C7.16996 16.6545 7.67739 17.1195 8.30044 17.3463C8.92349 17.5731 9.61112 17.5431 10.2121 17.2629L14.7437 15.1496C15.3447 14.8694 15.8097 14.362 16.0365 13.7389C16.2633 13.1159 16.2333 12.4282 15.9531 11.8273C15.6729 11.2264 15.1655 10.7613 14.5424 10.5345C13.9194 10.3077 13.2317 10.3377 12.6308 10.6179L8.09914 12.7312Z" fill="#595959"/>
<path fill-rule="evenodd" clip-rule="evenodd" d="M10.3125 8.1075L8.45123 8.97458C8.05058 9.1614 7.74056 9.49971 7.58936 9.9151C7.43816 10.3305 7.45816 10.7889 7.64497 11.1896C7.83179 11.5902 8.1701 11.9002 8.5855 12.0514C9.00089 12.2027 9.45933 12.1826 9.85998 11.9958L11.7208 11.1283L10.3125 8.1075ZM10.7154 7L12.8283 11.5317L10.2121 12.7512C9.91451 12.89 9.59254 12.9688 9.26454 12.9831C8.93655 12.9974 8.60895 12.9469 8.30044 12.8346C7.99194 12.7223 7.70858 12.5504 7.46653 12.3286C7.22449 12.1067 7.0285 11.8394 6.88977 11.5419C6.75103 11.2443 6.67226 10.9224 6.65795 10.5944C6.64365 10.2664 6.69408 9.93876 6.80639 9.63026C7.03319 9.00721 7.49821 8.49977 8.09914 8.21958L10.7154 7Z" fill="#595959"/>
</svg>
