<svg width="15" height="15" viewBox="0 0 15 15" fill="none" xmlns="http://www.w3.org/2000/svg">
<path d="M5.625 1.875C6.08855 1.875 6.54169 2.01246 6.92712 2.26999C7.31255 2.52753 7.61295 2.89357 7.79034 3.32184C7.96774 3.7501 8.01415 4.22135 7.92372 4.67599C7.83328 5.13064 7.61006 5.54825 7.28228 5.87603C6.9545 6.20381 6.53689 6.42703 6.08224 6.51747C5.6276 6.6079 5.15635 6.56149 4.72809 6.38409C4.29982 6.2067 3.93378 5.9063 3.67624 5.52087C3.41871 5.13544 3.28125 4.6823 3.28125 4.21875C3.28125 3.59715 3.52818 3.00101 3.96772 2.56147C4.40726 2.12193 5.0034 1.875 5.625 1.875ZM5.625 0.9375C4.97603 0.9375 4.34164 1.12994 3.80204 1.49049C3.26244 1.85104 2.84187 2.3635 2.59352 2.96307C2.34517 3.56264 2.28019 4.22239 2.4068 4.85889C2.53341 5.49539 2.84592 6.08005 3.30481 6.53894C3.7637 6.99783 4.34836 7.31034 4.98486 7.43695C5.62136 7.56356 6.28111 7.49858 6.88068 7.25023C7.48025 7.00188 7.99271 6.58131 8.35326 6.04171C8.71381 5.50212 8.90625 4.86772 8.90625 4.21875C8.90625 3.34851 8.56055 2.51391 7.9452 1.89856C7.32984 1.2832 6.49524 0.9375 5.625 0.9375Z" fill="#595959"/>
<path d="M10.3125 14.0625H9.375V11.7188C9.375 11.0971 9.12807 10.501 8.68853 10.0615C8.24899 9.62193 7.65285 9.375 7.03125 9.375H4.21875C3.59715 9.375 3.00101 9.62193 2.56147 10.0615C2.12193 10.501 1.875 11.0971 1.875 11.7188V14.0625H0.9375V11.7188C0.9375 10.8485 1.2832 10.0139 1.89856 9.39856C2.51391 8.7832 3.34851 8.4375 4.21875 8.4375H7.03125C7.90149 8.4375 8.73609 8.7832 9.35144 9.39856C9.9668 10.0139 10.3125 10.8485 10.3125 11.7188V14.0625Z" fill="#595959"/>
<path d="M11.7188 7.58438L10.5047 6.37031L9.84375 7.03125L11.7188 8.90625L15 5.625L14.3391 4.96406L11.7188 7.58438Z" fill="#595959"/>
</svg>
