<svg width="15" height="15" viewBox="0 0 15 15" fill="none" xmlns="http://www.w3.org/2000/svg">
<path d="M5.7589 2.40964C5.72338 2.40964 5.68932 2.42375 5.6642 2.44887C5.63908 2.47399 5.62497 2.50805 5.62497 2.54357V5.22321C5.62497 5.32977 5.58264 5.43197 5.50729 5.50732C5.43194 5.58267 5.32975 5.625 5.22319 5.625H2.54462C2.5091 5.625 2.47503 5.63911 2.44991 5.66423C2.4248 5.68934 2.41069 5.72341 2.41069 5.75893V9.24107C2.41069 9.315 2.47069 9.375 2.54462 9.375H5.22319C5.32975 9.375 5.43194 9.41733 5.50729 9.49268C5.58264 9.56803 5.62497 9.67023 5.62497 9.77679V12.4559C5.62497 12.5298 5.68497 12.5898 5.7589 12.5898H9.24104C9.27656 12.5898 9.31063 12.5757 9.33575 12.5506C9.36086 12.5255 9.37497 12.4914 9.37497 12.4559V9.77679C9.37497 9.67023 9.4173 9.56803 9.49265 9.49268C9.568 9.41733 9.6702 9.375 9.77676 9.375H12.4553C12.4908 9.375 12.5249 9.36089 12.55 9.33577C12.5751 9.31066 12.5893 9.27659 12.5893 9.24107V5.75893C12.5893 5.72341 12.5751 5.68934 12.55 5.66423C12.5249 5.63911 12.4908 5.625 12.4553 5.625H9.77676C9.6702 5.625 9.568 5.58267 9.49265 5.50732C9.4173 5.43197 9.37497 5.32977 9.37497 5.22321V2.54411C9.37497 2.50859 9.36086 2.47452 9.33575 2.44941C9.31063 2.42429 9.27656 2.41018 9.24104 2.41018H5.7589V2.40964ZM4.8214 2.54357C4.8214 2.02607 5.2414 1.60607 5.7589 1.60607H9.24104C9.75854 1.60607 10.1785 2.02607 10.1785 2.54357V4.82143H12.4553C12.9728 4.82143 13.3928 5.24089 13.3928 5.75893V9.24107C13.3928 9.48971 13.2941 9.72817 13.1182 9.90398C12.9424 10.0798 12.704 10.1786 12.4553 10.1786H10.1785V12.4559C10.1785 12.7045 10.0798 12.943 9.90396 13.1188C9.72814 13.2946 9.48968 13.3934 9.24104 13.3934H5.7589C5.51026 13.3934 5.2718 13.2946 5.09599 13.1188C4.92017 12.943 4.8214 12.7045 4.8214 12.4559V10.1786H2.54462C2.29598 10.1786 2.05752 10.0798 1.8817 9.90398C1.70589 9.72817 1.60712 9.48971 1.60712 9.24107V5.75893C1.60712 5.24143 2.02712 4.82143 2.54462 4.82143H4.8214V2.54411V2.54357Z" fill="#595959"/>
</svg>
