<svg width="21" height="21" viewBox="0 0 21 21" fill="none" xmlns="http://www.w3.org/2000/svg">
<path d="M9.11672 12.7771C10.0726 12.3434 10.8512 11.5954 11.3228 10.6576C11.7944 9.71986 11.9306 8.64884 11.7088 7.62286C11.4869 6.59688 10.9204 5.67782 10.1035 5.01866C9.28654 4.3595 8.2685 4 7.21881 4C6.16911 4 5.15107 4.3595 4.33415 5.01866C3.51722 5.67782 2.95068 6.59688 2.72883 7.62286C2.50697 8.64884 2.64319 9.71986 3.1148 10.6576C3.58641 11.5954 4.36497 12.3434 5.32089 12.7771C3.58983 13.228 2.07453 14.2777 1.04394 15.7398C1.01818 15.775 0.99968 15.815 0.989535 15.8574C0.979389 15.8998 0.977798 15.9438 0.984856 15.9868C0.991913 16.0299 1.00748 16.0711 1.03064 16.108C1.0538 16.1449 1.08409 16.1769 1.11974 16.202C1.1554 16.2271 1.1957 16.2449 1.23829 16.2542C1.28088 16.2636 1.32491 16.2643 1.3678 16.2565C1.4107 16.2486 1.45159 16.2323 1.4881 16.2084C1.52461 16.1846 1.55599 16.1537 1.58043 16.1176C2.21634 15.213 3.06059 14.4746 4.04189 13.9649C5.02319 13.4552 6.11272 13.1891 7.21849 13.1891C8.32427 13.189 9.41382 13.455 10.3952 13.9647C11.3765 14.4743 12.2208 15.2126 12.8568 16.1172C12.9069 16.1882 12.9832 16.2364 13.0689 16.2513C13.1546 16.2661 13.2427 16.2463 13.3138 16.1962C13.3849 16.1462 13.4332 16.0699 13.4481 15.9843C13.463 15.8986 13.4433 15.8105 13.3933 15.7393C12.3628 14.2775 10.8476 13.228 9.11672 12.7771ZM3.28127 8.5954C3.28127 7.81663 3.5122 7.05536 3.94485 6.40784C4.37751 5.76032 4.99247 5.25564 5.71195 4.95762C6.43143 4.6596 7.22313 4.58163 7.98693 4.73356C8.75073 4.88548 9.45233 5.2605 10.003 5.81116C10.5537 6.36183 10.9287 7.06343 11.0806 7.82723C11.2325 8.59103 11.1546 9.38273 10.8565 10.1022C10.5585 10.8217 10.0538 11.4367 9.40632 11.8693C8.7588 12.302 7.99753 12.5329 7.21877 12.5329C6.17483 12.5317 5.174 12.1165 4.43583 11.3783C3.69766 10.6402 3.28244 9.63933 3.28127 8.5954ZM20.0014 16.1966C19.9661 16.2214 19.9264 16.239 19.8843 16.2485C19.8423 16.2579 19.7988 16.259 19.7563 16.2516C19.7138 16.2442 19.6732 16.2285 19.6368 16.2055C19.6004 16.1824 19.5689 16.1524 19.5441 16.1172C18.9074 15.2134 18.063 14.4758 17.0819 13.9662C16.1008 13.4567 15.0116 13.1902 13.9061 13.1891C13.8191 13.1891 13.7356 13.1546 13.6741 13.093C13.6126 13.0315 13.578 12.948 13.578 12.861C13.578 12.774 13.6126 12.6905 13.6741 12.629C13.7356 12.5675 13.8191 12.5329 13.9061 12.5329C14.4684 12.5323 15.0241 12.4114 15.5357 12.1781C16.0474 11.9448 16.5031 11.6046 16.8723 11.1805C17.2415 10.7563 17.5155 10.258 17.676 9.71911C17.8365 9.18018 17.8797 8.61313 17.8026 8.05612C17.7256 7.49911 17.5302 6.96505 17.2295 6.48989C16.9288 6.01472 16.5299 5.60947 16.0594 5.3014C15.589 4.99333 15.0581 4.7896 14.5023 4.7039C13.9466 4.6182 13.3789 4.65252 12.8376 4.80457C12.7961 4.81624 12.7527 4.81962 12.7099 4.81452C12.6671 4.80942 12.6258 4.79595 12.5882 4.77486C12.5506 4.75378 12.5175 4.7255 12.4909 4.69163C12.4642 4.65777 12.4445 4.61899 12.4328 4.57751C12.4212 4.53602 12.4178 4.49265 12.4229 4.44985C12.428 4.40706 12.4415 4.36569 12.4625 4.32811C12.4836 4.29053 12.5119 4.25746 12.5458 4.23081C12.5796 4.20415 12.6184 4.18443 12.6599 4.17276C13.7746 3.85866 14.9669 3.97723 15.9979 4.50473C17.029 5.03224 17.8227 5.92974 18.2202 7.01754C18.6177 8.10534 18.5896 9.30314 18.1416 10.3711C17.6935 11.4391 16.8586 12.2984 15.804 12.777C17.5349 13.2279 19.0501 14.2774 20.0807 15.7393C20.1055 15.7746 20.1231 15.8143 20.1326 15.8564C20.142 15.8984 20.1431 15.9419 20.1357 15.9844C20.1284 16.0268 20.1127 16.0674 20.0897 16.1038C20.0666 16.1403 20.0366 16.1718 20.0014 16.1966Z" fill="#595959"/>
</svg>
