<svg width="20" height="20" viewBox="0 0 20 20" fill="none" xmlns="http://www.w3.org/2000/svg">
<path d="M19.2 0H0.8C0.3575 0 0 0.3575 0 0.8V19.2C0 19.6425 0.3575 20 0.8 20H19.2C19.6425 20 20 19.6425 20 19.2V0.8C20 0.3575 19.6425 0 19.2 0ZM14.6125 7.5175L10.1625 13.6675C10.1441 13.6931 10.1199 13.7139 10.0918 13.7282C10.0638 13.7426 10.0327 13.7501 10.0012 13.7501C9.96975 13.7501 9.93871 13.7426 9.91067 13.7282C9.88264 13.7139 9.85841 13.6931 9.84 13.6675L5.39 7.5175C5.295 7.385 5.39 7.2 5.5525 7.2H6.725C6.98 7.2 7.2225 7.3225 7.3725 7.53L10 11.165L12.63 7.53C12.78 7.3225 13.02 7.2 13.2775 7.2H14.45C14.6125 7.2 14.7075 7.385 14.6125 7.5175V7.5175Z" fill="url(#paint0_linear)"/>
<defs>
<linearGradient id="paint0_linear" x1="0" y1="10" x2="33.5" y2="10" gradientUnits="userSpaceOnUse">
<stop stop-color="#4EB683"/>
<stop offset="1" stop-color="#67FFB4"/>
</linearGradient>
</defs>
</svg>
